<?xml version="1.0" standalone="no"?>
<!DOCTYPE svg PUBLIC "-//W3C//DTD SVG 20010904//EN"
 "http://www.w3.org/TR/2001/REC-SVG-20010904/DTD/svg10.dtd">
<svg version="1.0" xmlns="http://www.w3.org/2000/svg"
 width="2048.000000pt" height="2360.000000pt" viewBox="0 0 2048.000000 2360.000000"
 preserveAspectRatio="xMidYMid meet">
<metadata>
Created by potrace 1.16, written by Peter Selinger 2001-2019
</metadata>
<g transform="translate(0.000000,2360.000000) scale(0.100000,-0.100000)"
fill="#000000" stroke="none">
<path d="M9480 21304 c-190 -108 -480 -273 -645 -367 -165 -93 -415 -235 -555
-315 -140 -80 -336 -191 -435 -247 -401 -228 -1086 -617 -1525 -865 -256 -145
-807 -457 -1225 -693 -418 -237 -788 -446 -823 -466 l-62 -35 2 -5494 3 -5494
196 -102 c107 -56 260 -136 340 -178 79 -42 252 -132 384 -201 578 -300 1427
-744 1622 -846 117 -61 215 -111 218 -111 3 0 5 3148 5 6996 l0 6995 22 -6
c11 -4 60 -25 107 -47 47 -22 208 -95 356 -163 149 -68 356 -162 460 -210 105
-48 287 -131 405 -185 118 -53 424 -193 680 -310 256 -117 512 -234 570 -260
58 -26 314 -143 570 -260 256 -117 562 -256 680 -310 118 -54 528 -240 910
-415 1163 -531 1349 -615 1359 -615 10 0 2669 1595 2685 1611 6 5 -28 26 -85
53 -479 223 -1461 681 -1694 789 -159 74 -344 161 -410 192 -66 31 -138 65
-160 75 -22 9 -242 112 -490 228 -393 183 -1463 682 -1720 802 -49 23 -383
179 -742 346 -358 167 -653 304 -655 304 -2 0 -158 -88 -348 -196z"/>
<path d="M14865 17597 c-506 -304 -1392 -837 -1970 -1184 -577 -347 -1842
-1107 -2810 -1688 -968 -582 -1784 -1072 -1812 -1089 -29 -16 -50 -33 -45 -37
4 -4 165 -90 357 -192 554 -292 1243 -656 1330 -702 44 -24 197 -105 340 -180
270 -143 367 -194 522 -277 l92 -49 173 104 c95 57 1066 641 2158 1297 1092
656 2123 1276 2293 1378 l307 184 0 1494 c0 822 -3 1494 -8 1494 -4 0 -421
-249 -927 -553z"/>
<path d="M15695 14546 c-49 -29 -522 -313 -1050 -631 -528 -318 -1036 -624
-1130 -680 -93 -57 -579 -349 -1080 -650 -500 -302 -948 -571 -993 -598 -46
-27 -80 -53 -75 -57 7 -8 343 -184 793 -417 91 -47 197 -103 235 -123 39 -21
147 -77 240 -125 94 -48 202 -105 240 -125 86 -46 1006 -526 1090 -568 l60
-30 885 532 885 532 3 1497 c1 823 -1 1497 -5 1497 -5 0 -48 -24 -98 -54z"/>
<path d="M15515 10882 c-143 -87 -834 -502 -1535 -924 -701 -421 -2044 -1228
-2985 -1793 -940 -565 -2171 -1304 -2735 -1643 -564 -338 -1032 -621 -1040
-628 -12 -12 376 -14 2474 -14 l2489 0 46 29 c47 29 294 177 1141 681 261 156
624 372 805 480 182 108 578 345 880 525 303 180 593 353 645 384 l95 57 3
1502 c2 1199 0 1502 -10 1501 -7 0 -130 -71 -273 -157z"/>
<path d="M4180 3920 l0 -670 478 0 c398 0 488 3 537 15 320 84 427 490 188
716 l-54 51 23 52 c18 41 23 69 23 141 0 78 -4 98 -29 152 -35 76 -104 144
-184 181 l-57 27 -462 3 -463 3 0 -671z m896 414 c64 -30 86 -124 42 -179 -41
-52 -61 -55 -393 -55 l-305 0 0 125 0 125 311 0 c267 0 316 -2 345 -16z m99
-491 c110 -59 132 -202 46 -293 -21 -22 -53 -42 -76 -49 -26 -7 -163 -11 -382
-11 l-343 0 0 191 0 190 358 -3 c343 -3 359 -4 397 -25z"/>
<path d="M7140 3921 l0 -671 368 0 c417 0 458 5 587 69 186 93 315 253 361
446 22 97 15 275 -16 365 -67 199 -229 359 -435 427 l-80 27 -392 4 -393 3 0
-670z m840 387 c95 -46 169 -119 213 -207 30 -62 32 -71 32 -181 0 -109 -2
-119 -32 -183 -42 -88 -117 -163 -208 -208 l-69 -34 -273 -3 -273 -3 0 424 c0
233 3 427 7 431 4 4 125 6 268 4 l260 -3 75 -37z"/>
<path d="M9137 4579 c-101 -24 -199 -105 -243 -202 l-29 -62 0 -395 0 -395 29
-63 c42 -90 125 -165 214 -192 64 -19 89 -20 577 -18 l510 3 0 115 0 115 -510
5 c-466 5 -512 7 -536 23 -42 28 -49 57 -49 207 l0 140 428 2 427 3 3 118 3
117 -431 0 -430 0 0 81 c0 58 5 89 17 110 35 59 33 59 582 59 l502 0 -3 118
-3 117 -510 2 c-280 0 -527 -3 -548 -8z"/>
<path d="M10849 4577 c-103 -29 -190 -104 -238 -206 -22 -48 -26 -69 -26 -151
0 -83 3 -102 27 -150 41 -84 90 -135 166 -172 l66 -33 311 -5 c343 -6 360 -9
410 -74 56 -75 52 -166 -10 -235 -51 -56 -80 -61 -351 -61 -211 0 -244 3 -280
19 -50 23 -82 61 -97 118 l-11 43 -119 0 -120 0 7 -51 c22 -164 137 -300 295
-349 56 -18 92 -20 330 -20 193 0 280 4 317 14 123 33 221 115 277 234 30 63
32 74 32 177 0 104 -2 114 -33 177 -53 109 -156 197 -266 229 -16 5 -155 9
-310 10 -181 1 -295 5 -321 13 -77 23 -112 128 -63 191 40 52 63 55 368 55
305 0 328 -3 368 -55 12 -15 22 -38 22 -51 0 -24 0 -24 121 -24 l122 0 -6 56
c-12 117 -91 223 -207 278 l-65 31 -335 2 c-245 2 -347 -1 -381 -10z"/>
<path d="M12225 4578 c-3 -7 -4 -308 -3 -668 l3 -655 118 -3 117 -3 0 671 0
670 -115 0 c-83 0 -117 -3 -120 -12z"/>
<path d="M13385 4575 c-147 -32 -253 -92 -355 -201 -298 -318 -218 -830 164
-1039 140 -78 143 -78 594 -82 l402 -4 0 365 0 366 -336 -2 -337 -3 -1 -112
-1 -113 215 -2 215 -3 3 -127 3 -128 -250 0 c-213 0 -258 3 -308 18 -116 37
-211 119 -265 230 -56 118 -50 283 17 397 33 56 107 127 167 160 95 52 123 55
516 55 l363 0 -3 118 -3 117 -370 2 c-277 1 -385 -2 -430 -12z"/>
<path d="M15670 4170 c0 -250 -4 -420 -9 -420 -5 0 -31 17 -58 37 -74 57 -953
732 -995 765 l-38 30 0 -666 0 -667 118 3 117 3 5 416 5 416 220 -169 c121
-93 271 -208 334 -256 62 -48 205 -158 317 -244 112 -87 208 -158 214 -158 7
0 9 207 8 663 l-3 662 -117 3 -118 3 0 -421z"/>
<path d="M5850 3880 l0 -120 453 2 452 3 3 118 3 117 -456 0 -455 0 0 -120z"/>
</g>
</svg>
